<svg version="1.1" id="Layer_1" xmlns="http://www.w3.org/2000/svg" xmlns:xlink="http://www.w3.org/1999/xlink" x="0px" y="0px"
	 width="100%" viewBox="0 0 1200 1200" enable-background="new 0 0 1200 1200" xml:space="preserve">
<path fill="#FFFFFF" opacity="1.000000" stroke="none" 
	d="
M1201.000000,426.000000 
	C1201.000000,684.666687 1201.000000,942.833313 1201.000000,1201.000000 
	C801.000000,1201.000000 401.000000,1201.000000 1.000000,1201.000000 
	C1.000000,801.000000 1.000000,401.000000 1.000000,1.000000 
	C401.000000,1.000000 801.000000,1.000000 1201.000000,1.000000 
	C1201.000000,142.500000 1201.000000,284.000000 1201.000000,426.000000 
M1057.371826,452.061676 
	C1049.521362,427.806000 1039.633057,404.418488 1027.993164,381.728973 
	C1000.854614,328.827515 964.940613,282.755371 920.731812,243.084091 
	C886.434265,212.306808 848.482361,187.014282 806.813721,167.319275 
	C728.475647,130.292175 646.125488,115.626785 559.798523,122.800247 
	C525.179199,125.677002 491.305481,132.267776 458.184662,142.620255 
	C390.094055,163.903137 329.624878,198.666931 277.041077,246.801773 
	C230.589096,289.323578 193.777634,339.108673 166.833160,396.152679 
	C139.257828,454.532318 124.280899,515.990479 121.353653,580.397949 
	C119.669640,617.451111 122.344757,654.272644 129.305435,690.698181 
	C138.354355,738.051514 154.118576,783.076965 176.788803,825.702820 
	C209.911743,887.982422 254.515457,940.514282 310.630371,983.114197 
	C385.875519,1040.237061 470.882660,1072.191772 564.983887,1079.745728 
	C597.253052,1082.336182 629.496460,1081.224609 661.661499,1077.189819 
	C714.805298,1070.523438 765.374878,1055.322144 813.322876,1031.602051 
	C868.408142,1004.351135 916.502502,967.784363 957.661560,922.077698 
	C988.961365,887.319580 1014.781677,848.943481 1034.757935,806.653625 
	C1069.485229,733.135681 1084.539673,655.788879 1080.203857,574.579590 
	C1077.982544,532.972229 1070.418945,492.421509 1057.371826,452.061676 
z"/>
<path fill="#FFC147" opacity="1.000000" stroke="none" 
	d="
M1057.531250,452.426331 
	C1070.418945,492.421509 1077.982544,532.972229 1080.203857,574.579590 
	C1084.539673,655.788879 1069.485229,733.135681 1034.757935,806.653625 
	C1014.781677,848.943481 988.961365,887.319580 957.661560,922.077698 
	C916.502502,967.784363 868.408142,1004.351135 813.322876,1031.602051 
	C765.374878,1055.322144 714.805298,1070.523438 661.661499,1077.189819 
	C629.496460,1081.224609 597.253052,1082.336182 564.983887,1079.745728 
	C470.882660,1072.191772 385.875519,1040.237061 310.630371,983.114197 
	C254.515457,940.514282 209.911743,887.982422 176.788803,825.702820 
	C154.118576,783.076965 138.354355,738.051514 129.305435,690.698181 
	C122.344757,654.272644 119.669640,617.451111 121.353653,580.397949 
	C124.280899,515.990479 139.257828,454.532318 166.833160,396.152679 
	C193.777634,339.108673 230.589096,289.323578 277.041077,246.801773 
	C329.624878,198.666931 390.094055,163.903137 458.184662,142.620255 
	C491.305481,132.267776 525.179199,125.677002 559.798523,122.800247 
	C646.125488,115.626785 728.475647,130.292175 806.813721,167.319275 
	C848.482361,187.014282 886.434265,212.306808 920.731812,243.084091 
	C964.940613,282.755371 1000.854614,328.827515 1027.993164,381.728973 
	C1039.633057,404.418488 1049.521362,427.806000 1057.531250,452.426331 
M1067.139038,560.412109 
	C1063.987061,539.708496 1060.739014,519.018677 1057.759033,498.290375 
	C1057.113770,493.801880 1055.002197,492.917511 1050.824219,492.918823 
	C750.836975,493.012238 450.849731,493.003906 150.862503,493.003906 
	C149.081741,493.003906 147.300980,493.003906 145.416931,493.003906 
	C136.028702,535.704346 131.498550,578.192810 133.580948,621.385498 
	C134.898605,648.716370 138.530396,675.664062 143.894836,702.456909 
	C144.963608,707.794922 147.051819,709.128479 152.373535,709.125854 
	C451.360748,708.979919 750.348022,708.996033 1049.335327,708.995972 
	C1050.501953,708.995972 1051.677368,708.903198 1052.833374,709.013794 
	C1055.400146,709.259338 1056.758667,708.434448 1057.222046,705.625549 
	C1058.140747,700.057068 1059.538330,694.569702 1060.589355,689.020630 
	C1068.593872,646.760681 1071.077881,604.211670 1067.139038,560.412109 
M257.500000,721.004272 
	C238.078400,721.004272 218.656799,721.004272 199.068939,721.004272 
	C243.465652,882.711426 413.114868,1041.267700 643.594543,1018.597534 
	C756.193726,1007.522156 849.276184,956.859253 922.686218,870.752930 
	C960.117188,826.848206 986.727417,776.923706 1003.407227,721.004272 
	C754.444519,721.004272 506.472260,721.004272 257.500000,721.004272 
M893.101440,299.396942 
	C887.973694,294.645111 882.960083,289.762787 877.699646,285.162689 
	C844.239868,255.902847 807.188171,232.298950 766.272888,214.861176 
	C707.006836,189.602417 645.215271,178.572433 580.825012,181.629120 
	C542.188904,183.463211 504.521637,190.264923 467.908539,202.595764 
	C396.951080,226.493378 336.674103,266.620087 286.860352,322.515381 
	C249.490921,364.447083 222.000488,412.140259 203.505905,465.090546 
	C201.738586,470.150391 200.353699,475.343842 198.696350,480.786957 
	C467.247162,480.786957 734.970276,480.786957 1003.401123,480.786957 
	C982.133362,410.809143 945.572266,350.701141 893.101440,299.396942 
M766.439575,1020.941650 
	C922.449280,959.233582 1010.071472,825.217773 1035.227539,720.998657 
	C1030.179321,720.998657 1025.178101,721.220581 1020.208130,720.921265 
	C1016.851807,720.719177 1015.679260,722.145142 1014.787354,725.136047 
	C1006.057190,754.411194 994.273804,782.407227 979.509216,809.168884 
	C949.715271,863.172363 910.144470,908.722229 861.031738,945.925903 
	C820.590332,976.561096 776.020020,999.237122 727.479553,1014.126343 
	C690.526367,1025.461182 652.702087,1031.485962 614.140564,1032.821655 
	C587.805298,1033.734009 561.580078,1031.961304 535.518860,1027.993896 
	C493.969147,1021.668518 454.168152,1009.528687 416.222076,991.504700 
	C363.213409,966.326233 317.200867,931.742981 278.176025,887.889160 
	C254.039017,860.765381 233.559387,831.121948 216.940079,798.837524 
	C204.729126,775.116760 194.713684,750.500488 187.001129,724.943726 
	C186.542084,723.422607 184.807632,721.276917 183.537628,721.183960 
	C177.920197,720.772644 172.255554,721.005981 166.288254,721.005981 
	C166.697937,722.995422 166.915573,724.621582 167.370850,726.178223 
	C174.621826,750.969238 183.781494,775.046082 195.152298,798.230164 
	C218.373459,845.576050 248.810089,887.681885 286.672852,924.493469 
	C316.854767,953.837463 350.368958,978.530823 387.386017,998.455444 
	C441.089874,1027.361816 498.318726,1044.623169 559.104675,1050.219604 
	C592.239624,1053.270264 625.293518,1052.803223 658.254089,1048.649170 
	C695.187256,1043.994263 731.041077,1034.855713 766.439575,1020.941650 
M220.586227,396.119965 
	C245.011642,351.227905 276.260925,311.756714 314.479187,277.804871 
	C340.994873,254.249222 369.935455,234.199051 401.393921,217.839539 
	C452.337158,191.347275 506.409454,175.692703 563.661926,170.703033 
	C601.209167,167.430725 638.512634,168.983017 675.558411,175.408447 
	C722.479187,183.546677 766.854675,199.187286 808.619141,222.184174 
	C858.232727,249.503082 900.854187,285.163147 936.560852,329.090668 
	C960.204712,358.178131 980.124634,389.643829 994.920654,424.103882 
	C1002.320618,441.338501 1008.181824,459.231354 1014.906128,476.762421 
	C1015.537964,478.409821 1017.281311,480.689575 1018.664062,480.804474 
	C1024.238159,481.267639 1029.873291,480.996399 1035.608398,480.996399 
	C987.807495,296.897156 801.262878,128.856750 556.453186,152.059433 
	C347.388062,171.874298 203.379776,331.132385 166.736191,481.001495 
	C171.789459,481.001495 176.788010,480.786591 181.757034,481.076965 
	C185.079193,481.271088 186.318207,479.930054 187.206299,476.898041 
	C195.371002,449.022980 206.669144,422.421509 220.586227,396.119965 
M276.409058,280.910767 
	C282.925873,274.717438 289.318024,268.386475 295.979462,262.352814 
	C344.166443,218.707230 399.259766,187.024139 461.108002,166.982849 
	C501.895813,153.765991 543.740356,146.665817 586.524231,145.232239 
	C621.242615,144.068893 655.640198,147.091675 689.775208,153.776581 
	C749.028015,165.380493 803.578674,188.236389 853.780151,221.562988 
	C889.941406,245.568909 921.976562,274.287415 949.907227,307.528320 
	C977.923096,340.870667 1001.258728,377.232178 1018.146851,417.398041 
	C1026.379150,436.977234 1032.701660,457.357666 1040.011108,477.330566 
	C1040.527710,478.742096 1041.923462,480.638062 1043.142456,480.829346 
	C1046.305420,481.325592 1049.598145,480.995911 1052.992920,480.995911 
	C1007.046082,294.928101 820.983093,116.720474 567.109375,134.334885 
	C340.885468,150.030899 187.224915,320.433716 149.257233,481.005890 
	C151.331039,481.005890 153.344482,480.754578 155.271210,481.056519 
	C159.737717,481.756531 161.480453,479.960236 162.711670,475.574554 
	C170.961349,446.188324 182.195969,417.959625 196.320282,390.875275 
	C217.415604,350.423523 243.865005,313.891602 276.409058,280.910767 
M408.238861,1014.261292 
	C401.984131,1011.153015 395.667725,1008.162170 389.484222,1004.918152 
	C330.491211,973.968384 280.714844,932.028687 239.978622,879.340027 
	C219.541122,852.905884 202.264648,824.545227 188.056305,794.297058 
	C177.492981,771.808716 168.938416,748.587708 161.988831,724.747925 
	C161.574661,723.327148 160.138641,721.365417 158.937759,721.175476 
	C155.758911,720.672852 152.448044,721.005066 149.045105,721.005066 
	C192.518311,898.293396 367.219238,1076.063965 616.305359,1068.633667 
	C847.175415,1061.746704 1011.204102,892.230347 1052.890991,720.994263 
	C1050.474243,720.994263 1048.151001,721.234070 1045.896851,720.941101 
	C1042.000610,720.434814 1040.593994,722.031799 1039.523926,725.798218 
	C1031.181885,755.158875 1020.053711,783.432251 1005.956421,810.541870 
	C978.501465,863.338806 942.206665,909.072144 896.957581,947.719055 
	C850.690491,987.235413 798.672668,1016.409241 740.723572,1035.054321 
	C677.328491,1055.451660 612.531433,1061.494385 546.501038,1053.745117 
	C498.585083,1048.121826 452.682007,1035.009521 408.238861,1014.261292 
z"/>
<path fill="#FFFFFF" opacity="1.000000" stroke="none" 
	d="
M1067.157593,560.873779 
	C1071.077881,604.211670 1068.593872,646.760681 1060.589355,689.020630 
	C1059.538330,694.569702 1058.140747,700.057068 1057.222046,705.625549 
	C1056.758667,708.434448 1055.400146,709.259338 1052.833374,709.013794 
	C1051.677368,708.903198 1050.501953,708.995972 1049.335327,708.995972 
	C750.348022,708.996033 451.360748,708.979919 152.373535,709.125854 
	C147.051819,709.128479 144.963608,707.794922 143.894836,702.456909 
	C138.530396,675.664062 134.898605,648.716370 133.580948,621.385498 
	C131.498550,578.192810 136.028702,535.704346 145.416931,493.003906 
	C147.300980,493.003906 149.081741,493.003906 150.862503,493.003906 
	C450.849731,493.003906 750.836975,493.012238 1050.824219,492.918823 
	C1055.002197,492.917511 1057.113770,493.801880 1057.759033,498.290375 
	C1060.739014,519.018677 1063.987061,539.708496 1067.157593,560.873779 
M291.425079,631.001831 
	C293.256622,630.974976 295.094238,631.035217 296.918701,630.907227 
	C309.247223,630.042053 316.140289,623.366272 316.943848,611.596069 
	C317.577271,602.319031 317.044708,593.531311 306.942413,588.808228 
	C314.261719,583.703430 316.632324,576.686340 314.603180,567.290466 
	C312.848480,559.165405 308.932892,554.805725 300.003662,554.018921 
	C291.311401,553.252930 282.471771,553.980103 273.714569,554.411987 
	C272.850616,554.454651 271.424683,557.009155 271.415741,558.405212 
	C271.270813,581.053650 271.377563,603.703613 271.246552,626.352234 
	C271.225708,629.959045 272.637146,631.008240 275.959686,630.922852 
	C280.784271,630.798950 285.616241,630.961548 291.425079,631.001831 
M678.001221,611.500000 
	C678.001221,608.669983 677.961426,605.839294 678.011414,603.010193 
	C678.073059,599.522644 677.790649,595.957581 678.427673,592.571045 
	C679.107056,588.959351 681.741821,586.720642 685.649902,587.110840 
	C689.259766,587.471252 689.958496,590.288330 690.001038,593.333496 
	C690.052246,596.995056 690.064331,600.657349 690.068237,604.319336 
	C690.077271,612.747925 690.071106,621.176514 690.071106,629.587708 
	C695.275024,629.587708 699.807129,629.587708 703.903198,629.587708 
	C703.903198,614.894653 704.154480,600.612427 703.782410,586.346497 
	C703.628662,580.450378 700.039856,577.195068 694.209778,575.663574 
	C687.098450,573.795532 680.749023,575.440002 675.094666,580.031189 
	C666.942688,573.334839 658.655579,573.359924 650.247314,578.959229 
	C646.687378,573.561462 641.741089,576.892822 637.377075,576.032227 
	C637.377075,594.328186 637.377075,612.024719 637.377075,629.627563 
	C642.149170,629.627563 646.537231,629.627563 651.430176,629.627563 
	C651.430176,620.217529 651.390869,611.177429 651.451538,602.137878 
	C651.472717,598.993347 651.528564,595.821594 651.949707,592.713928 
	C652.478638,588.810730 655.084534,586.903687 658.936707,587.104187 
	C662.720398,587.301086 663.228149,590.173096 663.298157,593.190674 
	C663.432373,598.971924 663.604614,604.752991 663.661621,610.535095 
	C663.724548,616.919495 663.675964,623.304993 663.675964,629.687256 
	C668.769653,629.687256 673.181152,629.687256 678.001221,629.687256 
	C678.001221,623.752808 678.001221,618.125916 678.001221,611.500000 
M730.998779,598.500000 
	C730.998779,614.896912 730.998779,631.293823 730.998779,647.652100 
	C736.115906,647.652100 740.505371,647.652100 745.646973,647.652100 
	C745.646973,641.939453 745.646973,636.574158 745.646973,630.886902 
	C748.892212,630.886902 751.391663,631.033081 753.869080,630.861450 
	C764.080383,630.153931 770.404602,625.581848 772.711975,616.696838 
	C775.160522,607.268372 775.652649,597.647827 773.667175,588.052673 
	C771.832520,579.186462 766.514038,574.675232 757.489868,575.155762 
	C752.898315,575.400330 748.392944,577.262451 743.677368,578.435974 
	C740.746338,573.184387 735.656067,577.129089 730.998779,575.839355 
	C730.998779,583.588867 730.998779,590.544495 730.998779,598.500000 
M571.686157,619.480774 
	C571.686157,622.886475 571.686157,626.292175 571.686157,629.642090 
	C584.965393,629.642090 597.368591,629.642090 609.840210,629.642090 
	C609.840210,625.694031 609.840210,622.105957 609.840210,617.848022 
	C601.866089,617.848022 594.157593,617.848022 586.501587,617.848022 
	C586.501587,610.583496 586.501587,604.001465 586.501587,596.823242 
	C593.555237,596.823242 600.293579,596.823242 606.971313,596.823242 
	C606.971313,592.629578 606.971313,589.044189 606.971313,584.838013 
	C599.924683,584.838013 593.203491,584.838013 586.487671,584.838013 
	C586.487671,578.283020 586.487671,572.367249 586.487671,565.970581 
	C594.384949,565.970581 601.971558,565.970581 609.763550,565.970581 
	C609.763550,561.779114 609.763550,558.081482 609.763550,554.315430 
	C596.986938,554.315430 584.576721,554.315430 571.685669,554.315430 
	C571.685669,575.912598 571.685669,597.198608 571.686157,619.480774 
M384.002136,600.481873 
	C383.960938,598.318420 384.065521,596.140381 383.851013,593.994263 
	C383.226776,587.748108 381.922577,581.767212 376.209869,577.934021 
	C364.767548,570.256287 347.039307,576.323059 343.117798,589.476562 
	C340.455627,598.405823 340.841949,607.504272 342.725342,616.595032 
	C344.412201,624.737244 349.122772,629.620728 357.460938,630.477783 
	C361.576874,630.900818 365.844391,631.337219 369.884827,630.723816 
	C381.409210,628.974243 380.118835,632.136902 379.836060,618.950134 
	C379.830017,618.668762 379.509155,618.394165 379.171936,617.855774 
	C374.858612,618.227905 370.412628,618.856934 365.956360,618.940552 
	C358.594177,619.078857 356.117462,616.188354 356.460663,607.893860 
	C365.494598,607.893860 374.565613,607.893860 384.002228,607.893860 
	C384.002228,605.384827 384.002228,603.414429 384.002136,600.481873 
M408.272705,601.689819 
	C408.526367,605.668152 408.589447,609.669617 409.069916,613.620361 
	C410.428467,624.791626 416.176453,630.191284 427.361694,630.867859 
	C430.510986,631.058411 433.748749,631.264404 436.834259,630.768555 
	C448.517242,628.891174 447.068939,632.019653 446.844238,619.000732 
	C446.839355,618.716675 446.532715,618.437927 446.184570,617.847778 
	C442.057739,618.221252 437.787018,618.831970 433.503021,618.946716 
	C425.683411,619.156250 423.184204,616.432495 423.412262,608.001953 
	C427.861450,608.001953 432.329071,608.001892 436.796661,608.001892 
	C441.400879,608.001892 446.005066,608.001953 450.759796,608.001953 
	C450.759796,602.412354 451.094879,597.424377 450.673645,592.501160 
	C450.165649,586.563477 448.279907,581.064514 442.782349,577.658081 
	C430.832550,570.253723 413.851807,576.558228 410.006927,589.983765 
	C409.011108,593.460999 408.851227,597.177673 408.272705,601.689819 
M917.401062,618.938293 
	C907.459534,619.093018 904.977539,616.901062 905.522522,607.858032 
	C914.546204,607.858032 923.612000,607.858032 932.810364,607.858032 
	C932.810364,602.496277 933.143860,597.663696 932.725464,592.897095 
	C932.207275,586.993835 930.533875,581.424316 925.121155,577.869019 
	C913.552734,570.270386 895.953003,576.373535 892.089661,589.593689 
	C889.227722,599.386902 889.665161,609.360352 892.377625,619.131775 
	C893.830505,624.365723 897.144897,628.996826 902.699524,629.562805 
	C910.542969,630.362000 918.528015,629.890015 926.445007,629.680725 
	C927.319092,629.657654 928.744873,627.870850 928.875916,626.777588 
	C929.220703,623.901306 928.992554,620.956421 928.992554,617.660706 
	C924.888367,618.140747 921.597046,618.525757 917.401062,618.938293 
M862.468750,575.605591 
	C860.011475,576.911377 857.554199,578.217102 855.095154,579.523804 
	C852.984253,575.588501 849.138855,574.764404 842.310669,576.822388 
	C842.310669,594.434265 842.310669,612.009338 842.310669,629.671997 
	C847.023865,629.671997 851.421936,629.671997 856.237976,629.671997 
	C856.237976,627.547546 856.216003,625.748413 856.241760,623.949890 
	C856.351135,616.311340 856.059692,608.637756 856.703125,601.043823 
	C857.430298,592.462830 859.986023,588.002625 869.889282,588.975342 
	C870.120911,588.998108 870.389893,588.641357 871.000061,588.205383 
	C871.000061,586.323364 871.000610,584.183044 871.000000,582.042725 
	C870.997803,574.939758 870.606384,574.602356 862.468750,575.605591 
M491.165466,597.070801 
	C492.886230,589.860352 498.004150,587.963135 505.763641,589.361023 
	C504.929626,584.118225 505.730164,577.974609 503.273376,576.099915 
	C498.575806,572.515442 493.454651,576.775940 489.108185,579.856445 
	C486.110443,572.840942 480.665710,577.297852 476.378052,575.915771 
	C476.378052,594.335938 476.378052,612.028198 476.378052,629.611816 
	C481.168823,629.611816 485.575104,629.611816 491.051178,629.611816 
	C491.051178,618.780029 491.051178,608.334106 491.165466,597.070801 
M801.000610,621.450012 
	C801.000610,624.209106 801.000610,626.968262 801.000610,629.610107 
	C806.162903,629.610107 810.572205,629.610107 815.203125,629.610107 
	C815.203125,612.262390 815.206909,595.302856 815.188049,578.343262 
	C815.187378,577.722778 814.965027,577.102539 814.810974,576.299683 
	C810.229492,576.299683 805.837158,576.299683 801.000610,576.299683 
	C801.000610,591.216492 801.000610,605.838623 801.000610,621.450012 
M806.561279,553.999939 
	C804.776489,553.999939 802.991699,553.999939 801.109863,553.999939 
	C801.109863,558.286011 801.109863,561.974731 801.109863,565.621460 
	C806.270508,565.621460 811.000671,565.621460 815.684814,565.621460 
	C815.684814,561.642456 815.684814,558.045715 815.684814,553.999939 
	C812.775452,553.999939 810.149414,553.999939 806.561279,553.999939 
z"/>
<path fill="#FFFFFF" opacity="1.000000" stroke="none" 
	d="
M258.000000,721.004272 
	C506.472260,721.004272 754.444519,721.004272 1003.407227,721.004272 
	C986.727417,776.923706 960.117188,826.848206 922.686218,870.752930 
	C849.276184,956.859253 756.193726,1007.522156 643.594543,1018.597534 
	C413.114868,1041.267700 243.465652,882.711426 199.068939,721.004272 
	C218.656799,721.004272 238.078400,721.004272 258.000000,721.004272 
M634.711609,920.007019 
	C636.777100,917.911865 635.634460,917.383484 633.407898,917.117188 
	C627.803467,916.446777 622.227478,915.495178 616.609985,914.993286 
	C613.237244,914.691895 611.241333,913.383240 609.972656,910.135925 
	C607.347046,903.415894 604.340759,896.844666 601.012695,889.098938 
	C597.726868,896.680603 594.697876,903.064209 592.208618,909.651733 
	C590.829834,913.300476 588.711609,914.723694 584.912415,915.057373 
	C578.615906,915.610535 572.369507,916.735046 564.546814,917.838196 
	C570.671936,923.745850 575.817383,928.446106 580.592102,933.496887 
	C581.798340,934.772766 582.438110,937.222900 582.276917,939.039246 
	C581.665161,945.933533 580.618164,952.789124 579.580444,960.851501 
	C584.269165,958.570435 588.232056,957.206177 591.548340,954.908508 
	C597.911438,950.499695 603.787720,950.416565 610.201050,954.798767 
	C613.609314,957.127563 617.634827,958.553162 622.484436,960.926086 
	C621.404236,952.898376 620.778198,946.303467 619.530884,939.828186 
	C618.941406,936.768005 619.653015,934.858215 621.802307,932.839294 
	C626.043945,928.855225 630.070374,924.642029 634.711609,920.007019 
M732.735474,914.131409 
	C731.712524,912.482971 730.490540,910.923889 729.702393,909.169861 
	C726.877686,902.883789 724.199890,896.531677 720.979614,889.077271 
	C717.643250,896.861755 714.638733,903.452454 712.008728,910.189270 
	C710.731995,913.459778 708.664001,914.664917 705.319214,915.001770 
	C698.934204,915.644653 692.588440,916.677612 684.588623,917.772949 
	C690.529114,923.536865 695.645996,928.204590 700.348877,933.257507 
	C701.649353,934.654724 702.388000,937.252502 702.230591,939.206482 
	C701.678162,946.064941 700.622864,952.882812 699.617249,960.832153 
	C704.573303,958.430603 708.700012,956.974426 712.212585,954.607056 
	C718.139099,950.612793 723.542786,950.412720 729.548035,954.460999 
	C733.172974,956.904541 737.418152,958.428040 742.393127,960.857361 
	C741.446960,953.414307 741.066650,947.098328 739.718872,940.996155 
	C738.828979,936.967041 739.895142,934.494080 742.732483,931.882080 
	C747.399719,927.585571 751.750549,922.945312 756.937866,917.745117 
	C748.237549,916.503784 740.872131,915.452942 732.735474,914.131409 
M449.739990,917.052979 
	C448.529755,917.285706 447.319550,917.518433 444.815552,918.000000 
	C450.629333,923.641724 455.708984,928.409607 460.559540,933.400085 
	C461.667084,934.539551 462.571655,936.459839 462.540710,938.000061 
	C462.477875,941.129272 461.651917,944.236633 461.252045,947.367188 
	C460.725220,951.492065 460.305725,955.630676 459.714447,960.877991 
	C465.671753,957.916992 470.594116,955.866882 475.091156,953.120300 
	C479.326538,950.533447 482.908325,950.740173 487.085815,953.205627 
	C491.667725,955.909668 496.633759,957.962769 502.437531,960.789001 
	C501.421661,953.032837 500.915527,946.567749 499.614899,940.266785 
	C498.898315,936.795166 499.779907,934.669312 502.206024,932.441040 
	C507.052246,927.990295 511.697601,923.320740 517.338196,917.858093 
	C509.411407,916.740479 503.070160,915.675049 496.686920,915.016541 
	C493.340302,914.671265 491.275513,913.461670 489.998413,910.203308 
	C487.358612,903.468445 484.357666,896.875122 480.997498,889.039490 
	C477.598633,896.975220 474.937592,903.888733 471.630157,910.477661 
	C470.655853,912.418640 468.036102,914.208435 465.851044,914.730469 
	C460.861389,915.922546 455.674286,916.287964 449.739990,917.052979 
z"/>
<path fill="#FFFFFF" opacity="1.000000" stroke="none" 
	d="
M893.351685,299.646851 
	C945.572266,350.701141 982.133362,410.809143 1003.401123,480.786957 
	C734.970276,480.786957 467.247162,480.786957 198.696350,480.786957 
	C200.353699,475.343842 201.738586,470.150391 203.505905,465.090546 
	C222.000488,412.140259 249.490921,364.447083 286.860352,322.515381 
	C336.674103,266.620087 396.951080,226.493378 467.908539,202.595764 
	C504.521637,190.264923 542.188904,183.463211 580.825012,181.629120 
	C645.215271,178.572433 707.006836,189.602417 766.272888,214.861176 
	C807.188171,232.298950 844.239868,255.902847 877.699646,285.162689 
	C882.960083,289.762787 887.973694,294.645111 893.351685,299.646851 
M623.426636,415.002686 
	C626.400024,415.002686 629.373474,415.002686 632.589294,415.002686 
	C632.415894,413.919006 632.318665,413.290497 632.214478,412.663177 
	C629.878113,398.593964 627.234009,384.567230 625.285034,370.444550 
	C623.053650,354.275055 628.584534,339.610565 635.274841,325.308197 
	C640.864624,313.358307 644.367676,300.889801 642.764038,287.636505 
	C641.853882,280.114868 639.967590,272.664978 637.946716,265.341187 
	C636.708191,260.852509 633.598816,258.731842 628.253967,258.847443 
	C610.113281,259.239899 591.954041,259.230255 573.812805,258.852234 
	C568.524902,258.742035 565.742554,260.806366 563.980286,265.242462 
	C563.245483,267.092102 562.499878,268.952026 561.967529,270.865234 
	C556.812927,289.389954 557.978455,307.461121 566.507568,324.774445 
	C574.790527,341.588165 579.247375,358.980286 576.106445,377.822540 
	C574.064148,390.074493 572.119873,402.342804 570.067017,415.002686 
	C587.222839,415.002686 604.836365,415.002686 623.426636,415.002686 
z"/>
<path fill="#FFFEFC" opacity="1.000000" stroke="none" 
	d="
M766.071167,1021.062622 
	C731.041077,1034.855713 695.187256,1043.994263 658.254089,1048.649170 
	C625.293518,1052.803223 592.239624,1053.270264 559.104675,1050.219604 
	C498.318726,1044.623169 441.089874,1027.361816 387.386017,998.455444 
	C350.368958,978.530823 316.854767,953.837463 286.672852,924.493469 
	C248.810089,887.681885 218.373459,845.576050 195.152298,798.230164 
	C183.781494,775.046082 174.621826,750.969238 167.370850,726.178223 
	C166.915573,724.621582 166.697937,722.995422 166.288254,721.005981 
	C172.255554,721.005981 177.920197,720.772644 183.537628,721.183960 
	C184.807632,721.276917 186.542084,723.422607 187.001129,724.943726 
	C194.713684,750.500488 204.729126,775.116760 216.940079,798.837524 
	C233.559387,831.121948 254.039017,860.765381 278.176025,887.889160 
	C317.200867,931.742981 363.213409,966.326233 416.222076,991.504700 
	C454.168152,1009.528687 493.969147,1021.668518 535.518860,1027.993896 
	C561.580078,1031.961304 587.805298,1033.734009 614.140564,1032.821655 
	C652.702087,1031.485962 690.526367,1025.461182 727.479553,1014.126343 
	C776.020020,999.237122 820.590332,976.561096 861.031738,945.925903 
	C910.144470,908.722229 949.715271,863.172363 979.509216,809.168884 
	C994.273804,782.407227 1006.057190,754.411194 1014.787354,725.136047 
	C1015.679260,722.145142 1016.851807,720.719177 1020.208130,720.921265 
	C1025.178101,721.220581 1030.179321,720.998657 1035.227539,720.998657 
	C1010.071472,825.217773 922.449280,959.233582 766.071167,1021.062622 
z"/>
<path fill="#FFFEFC" opacity="1.000000" stroke="none" 
	d="
M220.383301,396.428802 
	C206.669144,422.421509 195.371002,449.022980 187.206299,476.898041 
	C186.318207,479.930054 185.079193,481.271088 181.757034,481.076965 
	C176.788010,480.786591 171.789459,481.001495 166.736191,481.001495 
	C203.379776,331.132385 347.388062,171.874298 556.453186,152.059433 
	C801.262878,128.856750 987.807495,296.897156 1035.608398,480.996399 
	C1029.873291,480.996399 1024.238159,481.267639 1018.664062,480.804474 
	C1017.281311,480.689575 1015.537964,478.409821 1014.906128,476.762421 
	C1008.181824,459.231354 1002.320618,441.338501 994.920654,424.103882 
	C980.124634,389.643829 960.204712,358.178131 936.560852,329.090668 
	C900.854187,285.163147 858.232727,249.503082 808.619141,222.184174 
	C766.854675,199.187286 722.479187,183.546677 675.558411,175.408447 
	C638.512634,168.983017 601.209167,167.430725 563.661926,170.703033 
	C506.409454,175.692703 452.337158,191.347275 401.393921,217.839539 
	C369.935455,234.199051 340.994873,254.249222 314.479187,277.804871 
	C276.260925,311.756714 245.011642,351.227905 220.383301,396.428802 
z"/>
<path fill="#FFFDFA" opacity="1.000000" stroke="none" 
	d="
M276.176605,281.177307 
	C243.865005,313.891602 217.415604,350.423523 196.320282,390.875275 
	C182.195969,417.959625 170.961349,446.188324 162.711670,475.574554 
	C161.480453,479.960236 159.737717,481.756531 155.271210,481.056519 
	C153.344482,480.754578 151.331039,481.005890 149.257233,481.005890 
	C187.224915,320.433716 340.885468,150.030899 567.109375,134.334885 
	C820.983093,116.720474 1007.046082,294.928101 1052.992920,480.995911 
	C1049.598145,480.995911 1046.305420,481.325592 1043.142456,480.829346 
	C1041.923462,480.638062 1040.527710,478.742096 1040.011108,477.330566 
	C1032.701660,457.357666 1026.379150,436.977234 1018.146851,417.398041 
	C1001.258728,377.232178 977.923096,340.870667 949.907227,307.528320 
	C921.976562,274.287415 889.941406,245.568909 853.780151,221.562988 
	C803.578674,188.236389 749.028015,165.380493 689.775208,153.776581 
	C655.640198,147.091675 621.242615,144.068893 586.524231,145.232239 
	C543.740356,146.665817 501.895813,153.765991 461.108002,166.982849 
	C399.259766,187.024139 344.166443,218.707230 295.979462,262.352814 
	C289.318024,268.386475 282.925873,274.717438 276.176605,281.177307 
z"/>
<path fill="#FFFDFA" opacity="1.000000" stroke="none" 
	d="
M408.573425,1014.438599 
	C452.682007,1035.009521 498.585083,1048.121826 546.501038,1053.745117 
	C612.531433,1061.494385 677.328491,1055.451660 740.723572,1035.054321 
	C798.672668,1016.409241 850.690491,987.235413 896.957581,947.719055 
	C942.206665,909.072144 978.501465,863.338806 1005.956421,810.541870 
	C1020.053711,783.432251 1031.181885,755.158875 1039.523926,725.798218 
	C1040.593994,722.031799 1042.000610,720.434814 1045.896851,720.941101 
	C1048.151001,721.234070 1050.474243,720.994263 1052.890991,720.994263 
	C1011.204102,892.230347 847.175415,1061.746704 616.305359,1068.633667 
	C367.219238,1076.063965 192.518311,898.293396 149.045105,721.005066 
	C152.448044,721.005066 155.758911,720.672852 158.937759,721.175476 
	C160.138641,721.365417 161.574661,723.327148 161.988831,724.747925 
	C168.938416,748.587708 177.492981,771.808716 188.056305,794.297058 
	C202.264648,824.545227 219.541122,852.905884 239.978622,879.340027 
	C280.714844,932.028687 330.491211,973.968384 389.484222,1004.918152 
	C395.667725,1008.162170 401.984131,1011.153015 408.573425,1014.438599 
z"/>
<path fill="#FFC046" opacity="1.000000" stroke="none" 
	d="
M290.935059,631.001892 
	C285.616241,630.961548 280.784271,630.798950 275.959686,630.922852 
	C272.637146,631.008240 271.225708,629.959045 271.246552,626.352234 
	C271.377563,603.703613 271.270813,581.053650 271.415741,558.405212 
	C271.424683,557.009155 272.850616,554.454651 273.714569,554.411987 
	C282.471771,553.980103 291.311401,553.252930 300.003662,554.018921 
	C308.932892,554.805725 312.848480,559.165405 314.603180,567.290466 
	C316.632324,576.686340 314.261719,583.703430 306.942413,588.808228 
	C317.044708,593.531311 317.577271,602.319031 316.943848,611.596069 
	C316.140289,623.366272 309.247223,630.042053 296.918701,630.907227 
	C295.094238,631.035217 293.256622,630.974976 290.935059,631.001892 
M301.505280,612.567200 
	C303.622894,598.943054 299.080231,594.074341 286.565979,596.647644 
	C286.565979,603.672791 286.565979,610.707031 286.565979,617.677307 
	C296.777802,618.977051 298.222656,618.530396 301.505280,612.567200 
M300.592468,575.324524 
	C299.589294,566.498474 296.411438,564.527954 286.517761,566.673462 
	C286.517761,572.339294 286.517761,578.020020 286.517761,583.653687 
	C296.923706,584.731567 299.140381,583.481628 300.592468,575.324524 
z"/>
<path fill="#FFC046" opacity="1.000000" stroke="none" 
	d="
M678.001221,611.999512 
	C678.001221,618.125916 678.001221,623.752808 678.001221,629.687256 
	C673.181152,629.687256 668.769653,629.687256 663.675964,629.687256 
	C663.675964,623.304993 663.724548,616.919495 663.661621,610.535095 
	C663.604614,604.752991 663.432373,598.971924 663.298157,593.190674 
	C663.228149,590.173096 662.720398,587.301086 658.936707,587.104187 
	C655.084534,586.903687 652.478638,588.810730 651.949707,592.713928 
	C651.528564,595.821594 651.472717,598.993347 651.451538,602.137878 
	C651.390869,611.177429 651.430176,620.217529 651.430176,629.627563 
	C646.537231,629.627563 642.149170,629.627563 637.377075,629.627563 
	C637.377075,612.024719 637.377075,594.328186 637.377075,576.032227 
	C641.741089,576.892822 646.687378,573.561462 650.247314,578.959229 
	C658.655579,573.359924 666.942688,573.334839 675.094666,580.031189 
	C680.749023,575.440002 687.098450,573.795532 694.209778,575.663574 
	C700.039856,577.195068 703.628662,580.450378 703.782410,586.346497 
	C704.154480,600.612427 703.903198,614.894653 703.903198,629.587708 
	C699.807129,629.587708 695.275024,629.587708 690.071106,629.587708 
	C690.071106,621.176514 690.077271,612.747925 690.068237,604.319336 
	C690.064331,600.657349 690.052246,596.995056 690.001038,593.333496 
	C689.958496,590.288330 689.259766,587.471252 685.649902,587.110840 
	C681.741821,586.720642 679.107056,588.959351 678.427673,592.571045 
	C677.790649,595.957581 678.073059,599.522644 678.011414,603.010193 
	C677.961426,605.839294 678.001221,608.669983 678.001221,611.999512 
z"/>
<path fill="#FFC046" opacity="1.000000" stroke="none" 
	d="
M730.998779,598.000061 
	C730.998779,590.544495 730.998779,583.588867 730.998779,575.839355 
	C735.656067,577.129089 740.746338,573.184387 743.677368,578.435974 
	C748.392944,577.262451 752.898315,575.400330 757.489868,575.155762 
	C766.514038,574.675232 771.832520,579.186462 773.667175,588.052673 
	C775.652649,597.647827 775.160522,607.268372 772.711975,616.696838 
	C770.404602,625.581848 764.080383,630.153931 753.869080,630.861450 
	C751.391663,631.033081 748.892212,630.886902 745.646973,630.886902 
	C745.646973,636.574158 745.646973,641.939453 745.646973,647.652100 
	C740.505371,647.652100 736.115906,647.652100 730.998779,647.652100 
	C730.998779,631.293823 730.998779,614.896912 730.998779,598.000061 
M745.193726,613.323608 
	C745.193726,615.085083 745.193726,616.846558 745.193726,618.500000 
	C755.005005,619.807617 758.378113,618.455505 759.272888,611.688171 
	C760.114746,605.320251 760.055054,598.721863 759.462524,592.310791 
	C758.988770,587.184143 753.218079,584.961853 749.297852,588.364563 
	C747.196411,590.188599 745.721130,593.572754 745.392090,596.418152 
	C744.784668,601.670349 745.229492,607.044250 745.193726,613.323608 
z"/>
<path fill="#FFC045" opacity="1.000000" stroke="none" 
	d="
M571.685913,618.982666 
	C571.685669,597.198608 571.685669,575.912598 571.685669,554.315430 
	C584.576721,554.315430 596.986938,554.315430 609.763550,554.315430 
	C609.763550,558.081482 609.763550,561.779114 609.763550,565.970581 
	C601.971558,565.970581 594.384949,565.970581 586.487671,565.970581 
	C586.487671,572.367249 586.487671,578.283020 586.487671,584.838013 
	C593.203491,584.838013 599.924683,584.838013 606.971313,584.838013 
	C606.971313,589.044189 606.971313,592.629578 606.971313,596.823242 
	C600.293579,596.823242 593.555237,596.823242 586.501587,596.823242 
	C586.501587,604.001465 586.501587,610.583496 586.501587,617.848022 
	C594.157593,617.848022 601.866089,617.848022 609.840210,617.848022 
	C609.840210,622.105957 609.840210,625.694031 609.840210,629.642090 
	C597.368591,629.642090 584.965393,629.642090 571.686157,629.642090 
	C571.686157,626.292175 571.686157,622.886475 571.685913,618.982666 
z"/>
<path fill="#FFC046" opacity="1.000000" stroke="none" 
	d="
M384.002197,600.963013 
	C384.002228,603.414429 384.002228,605.384827 384.002228,607.893860 
	C374.565613,607.893860 365.494598,607.893860 356.460663,607.893860 
	C356.117462,616.188354 358.594177,619.078857 365.956360,618.940552 
	C370.412628,618.856934 374.858612,618.227905 379.171936,617.855774 
	C379.509155,618.394165 379.830017,618.668762 379.836060,618.950134 
	C380.118835,632.136902 381.409210,628.974243 369.884827,630.723816 
	C365.844391,631.337219 361.576874,630.900818 357.460938,630.477783 
	C349.122772,629.620728 344.412201,624.737244 342.725342,616.595032 
	C340.841949,607.504272 340.455627,598.405823 343.117798,589.476562 
	C347.039307,576.323059 364.767548,570.256287 376.209869,577.934021 
	C381.922577,581.767212 383.226776,587.748108 383.851013,593.994263 
	C384.065521,596.140381 383.960938,598.318420 384.002197,600.963013 
M362.705139,587.000854 
	C357.031921,587.847473 356.680542,592.131042 356.262146,596.713501 
	C360.934204,596.713501 365.327789,596.713501 369.689636,596.713501 
	C370.375824,589.627380 369.368927,588.101318 362.705139,587.000854 
z"/>
<path fill="#FFC046" opacity="1.000000" stroke="none" 
	d="
M408.290039,601.237061 
	C408.851227,597.177673 409.011108,593.460999 410.006927,589.983765 
	C413.851807,576.558228 430.832550,570.253723 442.782349,577.658081 
	C448.279907,581.064514 450.165649,586.563477 450.673645,592.501160 
	C451.094879,597.424377 450.759796,602.412354 450.759796,608.001953 
	C446.005066,608.001953 441.400879,608.001892 436.796661,608.001892 
	C432.329071,608.001892 427.861450,608.001953 423.412262,608.001953 
	C423.184204,616.432495 425.683411,619.156250 433.503021,618.946716 
	C437.787018,618.831970 442.057739,618.221252 446.184570,617.847778 
	C446.532715,618.437927 446.839355,618.716675 446.844238,619.000732 
	C447.068939,632.019653 448.517242,628.891174 436.834259,630.768555 
	C433.748749,631.264404 430.510986,631.058411 427.361694,630.867859 
	C416.176453,630.191284 410.428467,624.791626 409.069916,613.620361 
	C408.589447,609.669617 408.526367,605.668152 408.290039,601.237061 
M436.957611,592.044800 
	C435.846008,587.538818 432.516571,586.233398 428.601562,587.226013 
	C423.897095,588.418945 423.442200,592.488342 423.356140,597.012451 
	C426.934296,597.012451 430.240356,596.789612 433.502350,597.073120 
	C436.977661,597.375183 437.405457,595.598938 436.957611,592.044800 
z"/>
<path fill="#FFC046" opacity="1.000000" stroke="none" 
	d="
M917.853394,618.924561 
	C921.597046,618.525757 924.888367,618.140747 928.992554,617.660706 
	C928.992554,620.956421 929.220703,623.901306 928.875916,626.777588 
	C928.744873,627.870850 927.319092,629.657654 926.445007,629.680725 
	C918.528015,629.890015 910.542969,630.362000 902.699524,629.562805 
	C897.144897,628.996826 893.830505,624.365723 892.377625,619.131775 
	C889.665161,609.360352 889.227722,599.386902 892.089661,589.593689 
	C895.953003,576.373535 913.552734,570.270386 925.121155,577.869019 
	C930.533875,581.424316 932.207275,586.993835 932.725464,592.897095 
	C933.143860,597.663696 932.810364,602.496277 932.810364,607.858032 
	C923.612000,607.858032 914.546204,607.858032 905.522522,607.858032 
	C904.977539,616.901062 907.459534,619.093018 917.853394,618.924561 
M919.033081,593.747437 
	C918.267883,588.675232 916.141357,586.697205 911.780090,587.000793 
	C907.604797,587.291382 905.762695,590.058472 905.430054,596.997375 
	C909.219788,596.997375 913.001587,597.134277 916.758667,596.889465 
	C917.573181,596.836304 918.298401,595.412537 919.033081,593.747437 
z"/>
<path fill="#FFC046" opacity="1.000000" stroke="none" 
	d="
M862.849976,575.473999 
	C870.606384,574.602356 870.997803,574.939758 871.000000,582.042725 
	C871.000610,584.183044 871.000061,586.323364 871.000061,588.205383 
	C870.389893,588.641357 870.120911,588.998108 869.889282,588.975342 
	C859.986023,588.002625 857.430298,592.462830 856.703125,601.043823 
	C856.059692,608.637756 856.351135,616.311340 856.241760,623.949890 
	C856.216003,625.748413 856.237976,627.547546 856.237976,629.671997 
	C851.421936,629.671997 847.023865,629.671997 842.310669,629.671997 
	C842.310669,612.009338 842.310669,594.434265 842.310669,576.822388 
	C849.138855,574.764404 852.984253,575.588501 855.095154,579.523804 
	C857.554199,578.217102 860.011475,576.911377 862.849976,575.473999 
z"/>
<path fill="#FFC046" opacity="1.000000" stroke="none" 
	d="
M491.108337,597.479492 
	C491.051178,608.334106 491.051178,618.780029 491.051178,629.611816 
	C485.575104,629.611816 481.168823,629.611816 476.378052,629.611816 
	C476.378052,612.028198 476.378052,594.335938 476.378052,575.915771 
	C480.665710,577.297852 486.110443,572.840942 489.108185,579.856445 
	C493.454651,576.775940 498.575806,572.515442 503.273376,576.099915 
	C505.730164,577.974609 504.929626,584.118225 505.763641,589.361023 
	C498.004150,587.963135 492.886230,589.860352 491.108337,597.479492 
z"/>
<path fill="#FFC045" opacity="1.000000" stroke="none" 
	d="
M801.000610,620.955444 
	C801.000610,605.838623 801.000610,591.216492 801.000610,576.299683 
	C805.837158,576.299683 810.229492,576.299683 814.810974,576.299683 
	C814.965027,577.102539 815.187378,577.722778 815.188049,578.343262 
	C815.206909,595.302856 815.203125,612.262390 815.203125,629.610107 
	C810.572205,629.610107 806.162903,629.610107 801.000610,629.610107 
	C801.000610,626.968262 801.000610,624.209106 801.000610,620.955444 
z"/>
<path fill="#FFC046" opacity="1.000000" stroke="none" 
	d="
M807.042297,553.999939 
	C810.149414,553.999939 812.775452,553.999939 815.684814,553.999939 
	C815.684814,558.045715 815.684814,561.642456 815.684814,565.621460 
	C811.000671,565.621460 806.270508,565.621460 801.109863,565.621460 
	C801.109863,561.974731 801.109863,558.286011 801.109863,553.999939 
	C802.991699,553.999939 804.776489,553.999939 807.042297,553.999939 
z"/>
<path fill="#FFC046" opacity="1.000000" stroke="none" 
	d="
M634.448669,920.265259 
	C630.070374,924.642029 626.043945,928.855225 621.802307,932.839294 
	C619.653015,934.858215 618.941406,936.768005 619.530884,939.828186 
	C620.778198,946.303467 621.404236,952.898376 622.484436,960.926086 
	C617.634827,958.553162 613.609314,957.127563 610.201050,954.798767 
	C603.787720,950.416565 597.911438,950.499695 591.548340,954.908508 
	C588.232056,957.206177 584.269165,958.570435 579.580444,960.851501 
	C580.618164,952.789124 581.665161,945.933533 582.276917,939.039246 
	C582.438110,937.222900 581.798340,934.772766 580.592102,933.496887 
	C575.817383,928.446106 570.671936,923.745850 564.546814,917.838196 
	C572.369507,916.735046 578.615906,915.610535 584.912415,915.057373 
	C588.711609,914.723694 590.829834,913.300476 592.208618,909.651733 
	C594.697876,903.064209 597.726868,896.680603 601.012695,889.098938 
	C604.340759,896.844666 607.347046,903.415894 609.972656,910.135925 
	C611.241333,913.383240 613.237244,914.691895 616.609985,914.993286 
	C622.227478,915.495178 627.803467,916.446777 633.407898,917.117188 
	C635.634460,917.383484 636.777100,917.911865 634.448669,920.265259 
z"/>
<path fill="#FFC046" opacity="1.000000" stroke="none" 
	d="
M733.121094,914.266724 
	C740.872131,915.452942 748.237549,916.503784 756.937866,917.745117 
	C751.750549,922.945312 747.399719,927.585571 742.732483,931.882080 
	C739.895142,934.494080 738.828979,936.967041 739.718872,940.996155 
	C741.066650,947.098328 741.446960,953.414307 742.393127,960.857361 
	C737.418152,958.428040 733.172974,956.904541 729.548035,954.460999 
	C723.542786,950.412720 718.139099,950.612793 712.212585,954.607056 
	C708.700012,956.974426 704.573303,958.430603 699.617249,960.832153 
	C700.622864,952.882812 701.678162,946.064941 702.230591,939.206482 
	C702.388000,937.252502 701.649353,934.654724 700.348877,933.257507 
	C695.645996,928.204590 690.529114,923.536865 684.588623,917.772949 
	C692.588440,916.677612 698.934204,915.644653 705.319214,915.001770 
	C708.664001,914.664917 710.731995,913.459778 712.008728,910.189270 
	C714.638733,903.452454 717.643250,896.861755 720.979614,889.077271 
	C724.199890,896.531677 726.877686,902.883789 729.702393,909.169861 
	C730.490540,910.923889 731.712524,912.482971 733.121094,914.266724 
z"/>
<path fill="#FFC046" opacity="1.000000" stroke="none" 
	d="
M450.153687,917.021118 
	C455.674286,916.287964 460.861389,915.922546 465.851044,914.730469 
	C468.036102,914.208435 470.655853,912.418640 471.630157,910.477661 
	C474.937592,903.888733 477.598633,896.975220 480.997498,889.039490 
	C484.357666,896.875122 487.358612,903.468445 489.998413,910.203308 
	C491.275513,913.461670 493.340302,914.671265 496.686920,915.016541 
	C503.070160,915.675049 509.411407,916.740479 517.338196,917.858093 
	C511.697601,923.320740 507.052246,927.990295 502.206024,932.441040 
	C499.779907,934.669312 498.898315,936.795166 499.614899,940.266785 
	C500.915527,946.567749 501.421661,953.032837 502.437531,960.789001 
	C496.633759,957.962769 491.667725,955.909668 487.085815,953.205627 
	C482.908325,950.740173 479.326538,950.533447 475.091156,953.120300 
	C470.594116,955.866882 465.671753,957.916992 459.714447,960.877991 
	C460.305725,955.630676 460.725220,951.492065 461.252045,947.367188 
	C461.651917,944.236633 462.477875,941.129272 462.540710,938.000061 
	C462.571655,936.459839 461.667084,934.539551 460.559540,933.400085 
	C455.708984,928.409607 450.629333,923.641724 444.815552,918.000000 
	C447.319550,917.518433 448.529755,917.285706 450.153687,917.021118 
z"/>
<path fill="#FFC046" opacity="1.000000" stroke="none" 
	d="
M622.938232,415.002686 
	C604.836365,415.002686 587.222839,415.002686 570.067017,415.002686 
	C572.119873,402.342804 574.064148,390.074493 576.106445,377.822540 
	C579.247375,358.980286 574.790527,341.588165 566.507568,324.774445 
	C557.978455,307.461121 556.812927,289.389954 561.967529,270.865234 
	C562.499878,268.952026 563.245483,267.092102 563.980286,265.242462 
	C565.742554,260.806366 568.524902,258.742035 573.812805,258.852234 
	C591.954041,259.230255 610.113281,259.239899 628.253967,258.847443 
	C633.598816,258.731842 636.708191,260.852509 637.946716,265.341187 
	C639.967590,272.664978 641.853882,280.114868 642.764038,287.636505 
	C644.367676,300.889801 640.864624,313.358307 635.274841,325.308197 
	C628.584534,339.610565 623.053650,354.275055 625.285034,370.444550 
	C627.234009,384.567230 629.878113,398.593964 632.214478,412.663177 
	C632.318665,413.290497 632.415894,413.919006 632.589294,415.002686 
	C629.373474,415.002686 626.400024,415.002686 622.938232,415.002686 
M607.512207,289.000244 
	C615.131836,289.000244 622.751526,289.000244 631.182251,289.000244 
	C630.246826,283.460052 629.606750,278.560608 628.473816,273.777893 
	C628.206970,272.651245 626.286682,271.135406 625.112427,271.122467 
	C609.114502,270.946198 593.113708,270.960327 577.114990,271.091431 
	C575.959290,271.100922 574.017273,272.188477 573.796204,273.102600 
	C572.574646,278.153473 571.773743,283.306152 570.705261,289.092224 
	C575.410156,289.092224 578.998230,289.092224 582.613342,289.092224 
	C582.613342,293.322144 582.613342,297.033813 582.613342,301.106079 
	C578.939819,301.106079 575.651184,301.106079 571.372009,301.106079 
	C572.639343,305.605713 573.492981,309.610504 574.891479,313.415009 
	C578.733398,323.866119 583.463867,334.037079 586.626831,344.680237 
	C591.194824,360.051331 588.696838,375.709808 586.518188,391.226440 
	C585.993958,394.960327 585.340881,398.676056 584.707947,402.645447 
	C595.802307,402.645447 606.356934,402.645447 617.282227,402.645447 
	C616.285767,396.186646 615.247925,390.138214 614.434753,384.059662 
	C612.113342,366.706268 611.926086,349.539459 619.058044,333.018616 
	C621.891602,326.454773 624.684082,319.864166 627.189514,313.171265 
	C628.590088,309.429596 629.364075,305.453308 630.641968,300.770935 
	C618.017456,300.770935 606.615295,300.770935 595.000122,300.770935 
	C595.000122,298.375671 595.000122,296.551727 595.000122,294.727814 
	C595.000122,292.955841 595.000122,291.183868 595.000122,289.635193 
	C595.922363,289.299866 596.221741,289.099579 596.523987,289.095123 
	C599.855530,289.045929 603.187439,289.027222 607.512207,289.000244 
z"/>
<path fill="#FFFDFA" opacity="1.000000" stroke="none" 
	d="
M301.348297,612.950928 
	C298.222656,618.530396 296.777802,618.977051 286.565979,617.677307 
	C286.565979,610.707031 286.565979,603.672791 286.565979,596.647644 
	C299.080231,594.074341 303.622894,598.943054 301.348297,612.950928 
z"/>
<path fill="#FFFDF8" opacity="1.000000" stroke="none" 
	d="
M300.496674,575.698242 
	C299.140381,583.481628 296.923706,584.731567 286.517761,583.653687 
	C286.517761,578.020020 286.517761,572.339294 286.517761,566.673462 
	C296.411438,564.527954 299.589294,566.498474 300.496674,575.698242 
z"/>
<path fill="#FFFDF8" opacity="1.000000" stroke="none" 
	d="
M745.214844,612.845520 
	C745.229492,607.044250 744.784668,601.670349 745.392090,596.418152 
	C745.721130,593.572754 747.196411,590.188599 749.297852,588.364563 
	C753.218079,584.961853 758.988770,587.184143 759.462524,592.310791 
	C760.055054,598.721863 760.114746,605.320251 759.272888,611.688171 
	C758.378113,618.455505 755.005005,619.807617 745.193726,618.500000 
	C745.193726,616.846558 745.193726,615.085083 745.214844,612.845520 
z"/>
<path fill="#FFFDF8" opacity="1.000000" stroke="none" 
	d="
M363.106934,587.000977 
	C369.368927,588.101318 370.375824,589.627380 369.689636,596.713501 
	C365.327789,596.713501 360.934204,596.713501 356.262146,596.713501 
	C356.680542,592.131042 357.031921,587.847473 363.106934,587.000977 
z"/>
<path fill="#FFFDF8" opacity="1.000000" stroke="none" 
	d="
M436.983307,592.470825 
	C437.405457,595.598938 436.977661,597.375183 433.502350,597.073120 
	C430.240356,596.789612 426.934296,597.012451 423.356140,597.012451 
	C423.442200,592.488342 423.897095,588.418945 428.601562,587.226013 
	C432.516571,586.233398 435.846008,587.538818 436.983307,592.470825 
z"/>
<path fill="#FFFDF8" opacity="1.000000" stroke="none" 
	d="
M919.048950,594.183716 
	C918.298401,595.412537 917.573181,596.836304 916.758667,596.889465 
	C913.001587,597.134277 909.219788,596.997375 905.430054,596.997375 
	C905.762695,590.058472 907.604797,587.291382 911.780090,587.000793 
	C916.141357,586.697205 918.267883,588.675232 919.048950,594.183716 
z"/>
<path fill="#FFFEFD" opacity="1.000000" stroke="none" 
	d="
M607.015747,289.000244 
	C603.187439,289.027222 599.855530,289.045929 596.523987,289.095123 
	C596.221741,289.099579 595.922363,289.299866 595.000122,289.635193 
	C595.000122,291.183868 595.000122,292.955841 595.000122,294.727814 
	C595.000122,296.551727 595.000122,298.375671 595.000122,300.770935 
	C606.615295,300.770935 618.017456,300.770935 630.641968,300.770935 
	C629.364075,305.453308 628.590088,309.429596 627.189514,313.171265 
	C624.684082,319.864166 621.891602,326.454773 619.058044,333.018616 
	C611.926086,349.539459 612.113342,366.706268 614.434753,384.059662 
	C615.247925,390.138214 616.285767,396.186646 617.282227,402.645447 
	C606.356934,402.645447 595.802307,402.645447 584.707947,402.645447 
	C585.340881,398.676056 585.993958,394.960327 586.518188,391.226440 
	C588.696838,375.709808 591.194824,360.051331 586.626831,344.680237 
	C583.463867,334.037079 578.733398,323.866119 574.891479,313.415009 
	C573.492981,309.610504 572.639343,305.605713 571.372009,301.106079 
	C575.651184,301.106079 578.939819,301.106079 582.613342,301.106079 
	C582.613342,297.033813 582.613342,293.322144 582.613342,289.092224 
	C578.998230,289.092224 575.410156,289.092224 570.705261,289.092224 
	C571.773743,283.306152 572.574646,278.153473 573.796204,273.102600 
	C574.017273,272.188477 575.959290,271.100922 577.114990,271.091431 
	C593.113708,270.960327 609.114502,270.946198 625.112427,271.122467 
	C626.286682,271.135406 628.206970,272.651245 628.473816,273.777893 
	C629.606750,278.560608 630.246826,283.460052 631.182251,289.000244 
	C622.751526,289.000244 615.131836,289.000244 607.015747,289.000244 
z"/>
</svg>